<svg width="210" height="210" viewBox="0 0 210 210" fill="none" xmlns="http://www.w3.org/2000/svg">
<g clip-path="url(#clip0)">
<rect width="210" height="210" fill="white"/>
<path d="M180 184C180 185.847 178.613 188.086 174.899 190.497C171.273 192.85 165.892 195.046 159.064 196.921C145.437 200.661 126.499 203 105.5 203C84.5012 203 65.5626 200.661 51.9358 196.921C45.1081 195.046 39.7275 192.85 36.1006 190.497C32.387 188.086 31 185.847 31 184C31 182.153 32.387 179.914 36.1006 177.503C39.7275 175.15 45.1081 172.954 51.9358 171.079C65.5626 167.339 84.5012 165 105.5 165C126.499 165 145.437 167.339 159.064 171.079C165.892 172.954 171.273 175.15 174.899 177.503C178.613 179.914 180 182.153 180 184Z" stroke="#F0F0F0" stroke-width="4"/>
<path d="M180 159C180 160.847 178.613 163.086 174.899 165.497C171.273 167.85 165.892 170.046 159.064 171.921C145.437 175.661 126.499 178 105.5 178C84.5012 178 65.5626 175.661 51.9358 171.921C45.1081 170.046 39.7275 167.85 36.1006 165.497C32.387 163.086 31 160.847 31 159C31 157.153 32.387 154.914 36.1006 152.503C39.7275 150.15 45.1081 147.954 51.9358 146.079C65.5626 142.339 84.5012 140 105.5 140C126.499 140 145.437 142.339 159.064 146.079C165.892 147.954 171.273 150.15 174.899 152.503C178.613 154.914 180 157.153 180 159Z" stroke="#BDBDBD" stroke-width="4"/>
<path d="M180 138C180 139.847 178.613 142.086 174.899 144.497C171.273 146.85 165.892 149.046 159.064 150.921C145.437 154.661 126.499 157 105.5 157C84.5012 157 65.5626 154.661 51.9358 150.921C45.1081 149.046 39.7275 146.85 36.1006 144.497C32.387 142.086 31 139.847 31 138C31 136.153 32.387 133.914 36.1006 131.503C39.7275 129.15 45.1081 126.954 51.9358 125.079C65.5626 121.339 84.5012 119 105.5 119C126.499 119 145.437 121.339 159.064 125.079C165.892 126.954 171.273 129.15 174.899 131.503C178.613 133.914 180 136.153 180 138Z" stroke="#5E5E5E" stroke-width="4"/>
<path d="M180 111C180 112.847 178.613 115.086 174.899 117.497C171.273 119.85 165.892 122.046 159.064 123.921C145.437 127.661 126.499 130 105.5 130C84.5012 130 65.5626 127.661 51.9358 123.921C45.1081 122.046 39.7275 119.85 36.1006 117.497C32.387 115.086 31 112.847 31 111C31 109.153 32.387 106.914 36.1006 104.503C39.7275 102.15 45.1081 99.9537 51.9358 98.0794C65.5626 94.3387 84.5012 92 105.5 92C126.499 92 145.437 94.3387 159.064 98.0794C165.892 99.9537 171.273 102.15 174.899 104.503C178.613 106.914 180 109.153 180 111Z" stroke="black" stroke-width="4"/>
<path d="M104.5 113.5C70.5 92.5 46.5 0 104.5 0C162.5 0 135 92.5 104.5 113.5Z" fill="#A60000" stroke="white" stroke-width="4"/>
<circle cx="104" cy="30" r="14" fill="white"/>
</g>
<defs>
<clipPath id="clip0">
<rect width="210" height="210" fill="white"/>
</clipPath>
</defs>
</svg>
