<svg width="300" height="300" viewBox="0 0 300 300" fill="none" xmlns="http://www.w3.org/2000/svg">
<rect width="300" height="300" fill="white"/>
<rect x="21.5" y="21.5" width="257" height="257" fill="#94ADD2" stroke="black"/>
<circle cx="91" cy="90" r="68.5" fill="white" stroke="black"/>
<path d="M278.5 181C278.5 222.139 244.704 255.5 203 255.5C161.296 255.5 127.5 222.139 127.5 181C127.5 139.861 161.296 106.5 203 106.5C244.704 106.5 278.5 139.861 278.5 181Z" fill="white" stroke="black"/>
<path d="M106.5 197.5C106.5 220.69 87.4776 239.5 64 239.5C40.5224 239.5 21.5 220.69 21.5 197.5C21.5 174.31 40.5224 155.5 64 155.5C87.4776 155.5 106.5 174.31 106.5 197.5Z" fill="white" stroke="black"/>
<path d="M150.5 247.5C150.5 264.613 136.404 278.5 119 278.5C101.596 278.5 87.5 264.613 87.5 247.5C87.5 230.387 101.596 216.5 119 216.5C136.404 216.5 150.5 230.387 150.5 247.5Z" fill="white" stroke="black"/>
<path d="M241.5 63.5C241.5 86.6905 222.478 105.5 199 105.5C175.522 105.5 156.5 86.6905 156.5 63.5C156.5 40.3095 175.522 21.5 199 21.5C222.478 21.5 241.5 40.3095 241.5 63.5Z" fill="white" stroke="black"/>
<circle cx="255.5" cy="97.5" r="23" fill="white" stroke="black"/>
<circle cx="255.5" cy="97.5" r="23" fill="white" stroke="black"/>
<path d="M178.5 262C178.5 270.575 171.769 277.5 163.5 277.5C155.231 277.5 148.5 270.575 148.5 262C148.5 253.425 155.231 246.5 163.5 246.5C171.769 246.5 178.5 253.425 178.5 262Z" fill="white" stroke="black"/>
<path d="M92.2715 94H91.1816V86.7754L88.9961 87.5781V86.5938L92.1016 85.4277H92.2715V94Z" fill="black"/>
<path d="M202.299 67H196.709V66.2207L199.662 62.9395C200.1 62.4434 200.4 62.041 200.564 61.7324C200.732 61.4199 200.816 61.0977 200.816 60.7656C200.816 60.3203 200.682 59.9551 200.412 59.6699C200.143 59.3848 199.783 59.2422 199.334 59.2422C198.795 59.2422 198.375 59.3965 198.074 59.7051C197.777 60.0098 197.629 60.4355 197.629 60.9824H196.545C196.545 60.1973 196.797 59.5625 197.301 59.0781C197.809 58.5938 198.486 58.3516 199.334 58.3516C200.127 58.3516 200.754 58.5605 201.215 58.9785C201.676 59.3926 201.906 59.9453 201.906 60.6367C201.906 61.4766 201.371 62.4766 200.301 63.6367L198.016 66.1152H202.299V67Z" fill="black"/>
<path d="M254.285 96.207H255.1C255.611 96.1992 256.014 96.0645 256.307 95.8027C256.6 95.541 256.746 95.1875 256.746 94.7422C256.746 93.7422 256.248 93.2422 255.252 93.2422C254.783 93.2422 254.408 93.377 254.127 93.6465C253.85 93.9121 253.711 94.2656 253.711 94.707H252.627C252.627 94.0312 252.873 93.4707 253.365 93.0254C253.861 92.5762 254.49 92.3516 255.252 92.3516C256.057 92.3516 256.688 92.5645 257.145 92.9902C257.602 93.416 257.83 94.0078 257.83 94.7656C257.83 95.1367 257.709 95.4961 257.467 95.8438C257.229 96.1914 256.902 96.4512 256.488 96.623C256.957 96.7715 257.318 97.0176 257.572 97.3613C257.83 97.7051 257.959 98.125 257.959 98.6211C257.959 99.3867 257.709 99.9941 257.209 100.443C256.709 100.893 256.059 101.117 255.258 101.117C254.457 101.117 253.805 100.9 253.301 100.467C252.801 100.033 252.551 99.4609 252.551 98.75H253.641C253.641 99.1992 253.787 99.5586 254.08 99.8281C254.373 100.098 254.766 100.232 255.258 100.232C255.781 100.232 256.182 100.096 256.459 99.8223C256.736 99.5488 256.875 99.1562 256.875 98.6445C256.875 98.1484 256.723 97.7676 256.418 97.502C256.113 97.2363 255.674 97.0996 255.1 97.0918H254.285V96.207Z" fill="black"/>
<path d="M205.285 182.135H206.469V183.02H205.285V185H204.195V183.02H200.311V182.381L204.131 176.469H205.285V182.135ZM201.541 182.135H204.195V177.951L204.066 178.186L201.541 182.135Z" fill="black"/>
<path d="M62.207 196.723L62.6406 192.469H67.0117V193.471H63.5605L63.3027 195.797C63.7207 195.551 64.1953 195.428 64.7266 195.428C65.5039 195.428 66.1211 195.686 66.5781 196.201C67.0352 196.713 67.2637 197.406 67.2637 198.281C67.2637 199.16 67.0254 199.854 66.5488 200.361C66.0762 200.865 65.4141 201.117 64.5625 201.117C63.8086 201.117 63.1934 200.908 62.7168 200.49C62.2402 200.072 61.9688 199.494 61.9023 198.756H62.9277C62.9941 199.244 63.168 199.613 63.4492 199.863C63.7305 200.109 64.1016 200.232 64.5625 200.232C65.0664 200.232 65.4609 200.061 65.7461 199.717C66.0352 199.373 66.1797 198.898 66.1797 198.293C66.1797 197.723 66.0234 197.266 65.7109 196.922C65.4023 196.574 64.9902 196.4 64.4746 196.4C64.002 196.4 63.6309 196.504 63.3613 196.711L63.0742 196.945L62.207 196.723Z" fill="black"/>
<path d="M120.963 242.463V243.383H120.764C119.92 243.398 119.248 243.648 118.748 244.133C118.248 244.617 117.959 245.299 117.881 246.178C118.33 245.662 118.943 245.404 119.721 245.404C120.463 245.404 121.055 245.666 121.496 246.189C121.941 246.713 122.164 247.389 122.164 248.217C122.164 249.096 121.924 249.799 121.443 250.326C120.967 250.854 120.326 251.117 119.521 251.117C118.705 251.117 118.043 250.805 117.535 250.18C117.027 249.551 116.773 248.742 116.773 247.754V247.338C116.773 245.768 117.107 244.568 117.775 243.74C118.447 242.908 119.445 242.482 120.77 242.463H120.963ZM119.539 246.307C119.168 246.307 118.826 246.418 118.514 246.641C118.201 246.863 117.984 247.143 117.863 247.479V247.877C117.863 248.58 118.021 249.146 118.338 249.576C118.654 250.006 119.049 250.221 119.521 250.221C120.01 250.221 120.393 250.041 120.67 249.682C120.951 249.322 121.092 248.852 121.092 248.27C121.092 247.684 120.949 247.211 120.664 246.852C120.383 246.488 120.008 246.307 119.539 246.307Z" fill="black"/>
<path d="M159.844 265.432C159.844 265.244 159.898 265.088 160.008 264.963C160.121 264.838 160.289 264.775 160.512 264.775C160.734 264.775 160.902 264.838 161.016 264.963C161.133 265.088 161.191 265.244 161.191 265.432C161.191 265.611 161.133 265.762 161.016 265.883C160.902 266.004 160.734 266.064 160.512 266.064C160.289 266.064 160.121 266.004 160.008 265.883C159.898 265.762 159.844 265.611 159.844 265.432ZM163.008 265.432C163.008 265.244 163.062 265.088 163.172 264.963C163.285 264.838 163.453 264.775 163.676 264.775C163.898 264.775 164.066 264.838 164.18 264.963C164.297 265.088 164.355 265.244 164.355 265.432C164.355 265.611 164.297 265.762 164.18 265.883C164.066 266.004 163.898 266.064 163.676 266.064C163.453 266.064 163.285 266.004 163.172 265.883C163.062 265.762 163.008 265.611 163.008 265.432ZM166.172 265.432C166.172 265.244 166.227 265.088 166.336 264.963C166.449 264.838 166.617 264.775 166.84 264.775C167.062 264.775 167.23 264.838 167.344 264.963C167.461 265.088 167.52 265.244 167.52 265.432C167.52 265.611 167.461 265.762 167.344 265.883C167.23 266.004 167.062 266.064 166.84 266.064C166.617 266.064 166.449 266.004 166.336 265.883C166.227 265.762 166.172 265.611 166.172 265.432Z" fill="black"/>
</svg>